<svg xmlns="http://www.w3.org/2000/svg" xml:space="preserve" width="1500" height="1500" data-id="lg_V7K7UNKZOlkKeeBqoY" data-version="1" viewBox="0 0 1500 1500"><path fill="#fff" stroke="transparent" d="M0 0h1500v1500H0z"/><g data-padding="20"><g transform="translate(-578.546 -584.573)scale(1.73087)"><rect width="714.42" height="474.6" x="267.368" y="512.242" fill="none" rx="0" ry="0" transform="matrix(.78 0 0 .78 280.39 186.4)"/><path fill="#ff8243" d="m529.497 873.566 17.035-154.955 74.693 133.66 74.693-133.66 17.035 154.955h27.846L712.953 632.78l-91.728 166.093-91.728-166.093-27.846 240.786Zm265.356 0 17.035-154.955 74.693 133.662 74.693-133.66 17.035 154.954h27.846L978.309 632.78 886.58 798.873 794.853 632.78l-27.846 240.786Z"/></g><path fill="transparent" stroke="transparent" stroke-width="1.795" d="M250 417.864h1000v664.272H250z"/></g></svg>