<svg xmlns="http://www.w3.org/2000/svg" xml:space="preserve" width="1500" height="1500" fill="#fff" stroke="#fff" data-id="lg_V7K7UNKZOlkKeeBqoY" data-version="1" viewBox="0 0 1500 1500"><path fill="#707070" stroke="transparent" d="M0 0h1500v1500H0z"/><g data-padding="20"><g transform="translate(119.397 113.391)scale(1.77055)"><filter id="a" width="142%" height="146%" x="-21%" y="-23%" fill="#fff" stroke="#fff"><feGaussianBlur in="SourceAlpha" stdDeviation="3"/><feOffset dy="6" result="oBlur"/><feFlood flood-color="#fff" flood-opacity="1"/><feComposite in2="oBlur" operator="in"/><feMerge><feMergeNode/><feMergeNode in="SourceGraphic"/></feMerge></filter><g filter="url(#a)"><rect width="544.32" height="361.6" x="84.002" y="178.754" fill="none" rx="0" ry="0"/><path fill="#000" d="m136.462 459.584 16.64-151.36 72.96 130.56 72.96-130.56 16.64 151.36h27.2l-27.2-235.2-89.6 162.24-89.6-162.24-27.2 235.2Zm259.2 0 16.64-151.36 72.96 130.56 72.96-130.56 16.64 151.36h27.2l-27.2-235.2-89.6 162.24-89.6-162.24-27.2 235.2Z"/></g></g><path fill="transparent" stroke="transparent" stroke-width="1.783" d="M250 418.45h1000v663.1H250z"/></g></svg>